<svg xmlns="http://www.w3.org/2000/svg" viewBox="0 0 40 40" fill="none" role="img" aria-label="备考跟踪">
  <defs>
    <linearGradient id="brand-bg" x1="4" y1="2" x2="36" y2="38" gradientUnits="userSpaceOnUse">
      <stop stop-color="#0f172a"/>
      <stop offset="0.55" stop-color="#0c4a6e"/>
      <stop offset="1" stop-color="#0369a1"/>
    </linearGradient>
    <linearGradient id="brand-page" x1="12" y1="10" x2="30" y2="32" gradientUnits="userSpaceOnUse">
      <stop stop-color="#ffffff"/>
      <stop offset="1" stop-color="#e0f2fe"/>
    </linearGradient>
    <linearGradient id="brand-mark" x1="14" y1="28" x2="30" y2="12" gradientUnits="userSpaceOnUse">
      <stop stop-color="#7dd3fc"/>
      <stop offset="1" stop-color="#ffffff"/>
    </linearGradient>
  </defs>
  <rect width="40" height="40" rx="11" fill="url(#brand-bg)"/>
  <path d="M9 30V14.5c0-1.2 1-2.2 2.2-2.2h3.1l2.2 2.2h9.3c1.2 0 2.2 1 2.2 2.2V30" fill="rgba(255,255,255,0.08)"/>
  <path d="M11 12.8h17.4c1 0 1.8.8 1.8 1.8V30H11V12.8z" fill="url(#brand-page)" opacity="0.96"/>
  <path d="M11 17h17.8" stroke="rgba(3,105,161,0.18)" stroke-width="1.2"/>
  <path d="M14 21h11M14 24.5h8.5M14 28h10" stroke="#0369a1" stroke-width="1.4" stroke-linecap="round" opacity="0.55"/>
  <path d="M13 30.5l5.2-7.2 3.4 3.1 5.8-9.4" stroke="url(#brand-mark)" stroke-width="2.3" stroke-linecap="round" stroke-linejoin="round"/>
  <circle cx="27.2" cy="17.2" r="2.2" fill="#0d9488"/>
  <circle cx="27.2" cy="17.2" r="4.2" stroke="rgba(13,148,136,0.35)" stroke-width="1"/>
  <path d="M24.8 8.8l1.2-1.8 1.2 1.8 2.1.3-1.5 1.5.4 2.1-2.2-1.2-2.2 1.2.4-2.1-1.5-1.5z" fill="#fbbf24"/>
</svg>