<svg xmlns="http://www.w3.org/2000/svg" aria-hidden="true" style="display:none">
  <symbol id="home" viewBox="0 0 24 24" fill="none" stroke="currentColor" stroke-width="1.75" stroke-linecap="round" stroke-linejoin="round">
    <path d="M4 10.5 12 4l8 6.5V20a1 1 0 0 1-1 1h-5v-6H10v6H5a1 1 0 0 1-1-1z"/>
  </symbol>
  <symbol id="resources" viewBox="0 0 24 24" fill="none" stroke="currentColor" stroke-width="1.75" stroke-linecap="round" stroke-linejoin="round">
    <path d="M4 6h16v12a1 1 0 0 1-1 1H5a1 1 0 0 1-1-1z"/><path d="M8 6V4a1 1 0 0 1 1-1h6a1 1 0 0 1 1 1v2"/>
  </symbol>
  <symbol id="plan" viewBox="0 0 24 24" fill="none" stroke="currentColor" stroke-width="1.75" stroke-linecap="round" stroke-linejoin="round">
    <path d="M9 5H7a2 2 0 0 0-2 2v12a2 2 0 0 0 2 2h10a2 2 0 0 0 2-2V7a2 2 0 0 0-2-2h-2"/><rect x="9" y="3" width="6" height="4" rx="1"/><path d="m9 12 2 2 4-4"/>
  </symbol>
  <symbol id="recommend" viewBox="0 0 24 24" fill="none" stroke="currentColor" stroke-width="1.75" stroke-linecap="round" stroke-linejoin="round">
    <path d="M12 3l2.2 4.5 5 .7-3.6 3.5.9 5-4.5-2.4-4.5 2.4.9-5L4.8 8.2l5-.7z"/>
  </symbol>
  <symbol id="statistics" viewBox="0 0 24 24" fill="none" stroke="currentColor" stroke-width="1.75" stroke-linecap="round" stroke-linejoin="round">
    <path d="M4 20V10"/><path d="M10 20V4"/><path d="M16 20v-8"/><path d="M22 20v-12"/>
  </symbol>
  <symbol id="qa" viewBox="0 0 24 24" fill="none" stroke="currentColor" stroke-width="1.75" stroke-linecap="round" stroke-linejoin="round">
    <circle cx="12" cy="12" r="9"/><path d="M9.5 9.5a2.5 2.5 0 0 1 4.5 1.5c0 1.5-2 2-2 3.5"/><circle cx="12" cy="17" r=".75" fill="currentColor" stroke="none"/>
  </symbol>
</svg>